<?xml version="1.0" encoding="UTF-8" standalone="no"?><!DOCTYPE svg PUBLIC "-//W3C//DTD SVG 1.1//EN" "http://www.w3.org/Graphics/SVG/1.1/DTD/svg11.dtd"><svg width="100%" height="100%" viewBox="0 0 596 157" version="1.1" xmlns="http://www.w3.org/2000/svg" xmlns:xlink="http://www.w3.org/1999/xlink" xml:space="preserve" xmlns:serif="http://www.serif.com/" style="fill-rule:evenodd;clip-rule:evenodd;stroke-linejoin:round;stroke-miterlimit:2;"><g id="Colored"></g><g id="Flat"></g><g id="Export-Group" serif:id="Export Group"><rect id="wordmark-on-white" x="0" y="0" width="595.579" height="156.932" style="fill:none;"/><clipPath id="_clip1"><rect id="wordmark-on-white1" serif:id="wordmark-on-white" x="0" y="0" width="595.579" height="156.932"/></clipPath><g clip-path="url(#_clip1)"><g><path d="M206.692,18.392c-2.35,0.403 -4.155,0.773 -5.414,1.117l0,73.568c0,10.313 2.72,17.763 8.164,22.345c5.442,4.581 13.206,6.875 23.29,6.875c8.251,0 14.009,-1.375 17.275,-4.125c3.266,-2.75 4.899,-6.301 4.899,-10.657c0,-2.176 -0.373,-4.039 -1.117,-5.587c-0.747,-1.546 -1.633,-2.948 -2.664,-4.211c-1.376,0.46 -2.981,0.833 -4.813,1.118c-1.835,0.287 -3.61,0.43 -5.329,0.43c-3.437,0 -6.102,-0.629 -7.993,-1.891c-1.89,-1.26 -2.836,-3.379 -2.836,-6.36l0,-25.955l15.642,0c2.979,0 5.356,-0.887 7.133,-2.665c1.775,-1.775 2.665,-4.667 2.665,-8.679c0,-2.292 -0.317,-4.383 -0.946,-6.275c-0.631,-1.89 -1.289,-3.464 -1.976,-4.727l-22.518,0l0,-11c0,-5.728 -1.404,-9.481 -4.211,-11.259c-2.809,-1.774 -6.733,-2.664 -11.774,-2.664c-2.638,0 -5.13,0.201 -7.477,0.602Z" style="fill:url(#_Linear2);fill-rule:nonzero;"/><path d="M321.081,58.527c-0.803,-0.457 -1.976,-0.915 -3.523,-1.374c-1.547,-0.457 -3.468,-0.689 -5.759,-0.689c-5.615,0 -9.827,1.577 -12.633,4.727c-2.81,3.154 -4.211,7.649 -4.211,13.494c0,6.647 1.401,11.43 4.211,14.352c2.806,2.923 6.387,4.383 10.743,4.383c4.697,0 8.422,-1.088 11.172,-3.265l0,-31.628Zm-10.657,-24.924c6.532,0 12.462,0.833 17.791,2.493c5.328,1.662 9.824,3.811 13.493,6.446c2.291,1.606 4.095,3.381 5.414,5.328c1.316,1.951 1.977,4.469 1.977,7.564l0,60.16c0,6.072 -1.147,11.315 -3.438,15.727c-2.293,4.411 -5.414,8.079 -9.368,11.001c-3.953,2.923 -8.594,5.071 -13.923,6.445c-5.328,1.376 -11.029,2.064 -17.102,2.064c-10.429,0 -18.623,-1.406 -24.58,-4.212c-5.96,-2.809 -8.938,-7.364 -8.938,-13.665c0,-2.638 0.542,-4.957 1.633,-6.962c1.087,-2.005 2.32,-3.522 3.695,-4.554c3.323,1.832 7.075,3.378 11.259,4.641c4.181,1.26 8.508,1.891 12.977,1.891c6.188,0 11.114,-1.032 14.782,-3.094c3.666,-2.063 5.501,-5.385 5.501,-9.97l0,-2.75c-4.7,2.063 -10.429,3.093 -17.188,3.093c-5.157,0 -10.056,-0.773 -14.697,-2.319c-4.641,-1.548 -8.709,-3.954 -12.204,-7.219c-3.497,-3.267 -6.303,-7.478 -8.422,-12.635c-2.122,-5.156 -3.18,-11.285 -3.18,-18.391c0,-6.989 1.117,-13.064 3.351,-18.221c2.235,-5.156 5.329,-9.423 9.282,-12.805c3.954,-3.378 8.651,-5.901 14.095,-7.563c5.441,-1.66 11.372,-2.493 17.79,-2.493" style="fill:#fff;fill-rule:nonzero;"/><path d="M396.881,119.547c-1.262,0.228 -3.123,0.542 -5.586,0.945c-2.466,0.401 -4.958,0.602 -7.477,0.602c-2.522,0 -4.786,-0.172 -6.79,-0.516c-2.006,-0.343 -3.695,-1.031 -5.07,-2.062c-1.376,-1.032 -2.437,-2.434 -3.18,-4.211c-0.747,-1.776 -1.118,-4.096 -1.118,-6.962l0,-99.694c1.26,-0.228 3.121,-0.543 5.587,-0.946c2.463,-0.4 4.955,-0.602 7.477,-0.602c2.519,0 4.783,0.173 6.79,0.516c2.003,0.344 3.695,1.032 5.07,2.063c1.375,1.031 2.433,2.436 3.18,4.212c0.744,1.777 1.117,4.098 1.117,6.96l0,99.695Z" style="fill:#fff;fill-rule:nonzero;"/><path d="M415.273,37.386c1.144,-0.345 2.949,-0.688 5.414,-1.032c2.463,-0.344 5.012,-0.516 7.65,-0.516c2.519,0 4.782,0.172 6.789,0.516c2.004,0.344 3.696,1.032 5.07,2.062c1.376,1.032 2.434,2.436 3.181,4.211c0.743,1.778 1.117,4.099 1.117,6.962l0,36.956c0,4.7 1.144,8.051 3.437,10.055c2.291,2.007 5.613,3.008 9.97,3.008c2.635,0 4.783,-0.228 6.446,-0.688c1.659,-0.456 2.948,-0.915 3.867,-1.374l0,-60.16c1.144,-0.345 2.949,-0.688 5.414,-1.032c2.463,-0.344 5.012,-0.516 7.65,-0.516c2.519,0 4.783,0.172 6.789,0.516c2.003,0.344 3.695,1.032 5.071,2.062c1.375,1.032 2.433,2.436 3.18,4.211c0.743,1.778 1.117,4.099 1.117,6.962l0,52.254c0,5.731 -2.406,10.028 -7.219,12.892c-4.013,2.521 -8.796,4.441 -14.353,5.757c-5.56,1.316 -11.602,1.978 -18.134,1.978c-6.188,0 -11.89,-0.689 -17.103,-2.064c-5.216,-1.374 -9.711,-3.494 -13.493,-6.36c-3.781,-2.862 -6.704,-6.558 -8.766,-11.086c-2.062,-4.525 -3.094,-9.997 -3.094,-16.415l0,-49.159Z" style="fill:#fff;fill-rule:nonzero;"/><path d="M5.586,6.704c-2.465,0.402 -4.326,0.717 -5.586,0.945l0,99.694c0,2.866 0.37,5.186 1.117,6.962c0.744,1.777 1.805,3.179 3.18,4.211c1.375,1.031 3.065,1.719 5.071,2.062c2.003,0.344 4.267,0.516 6.789,0.516c2.635,0 5.184,-0.172 7.649,-0.516c2.463,-0.343 4.268,-0.687 5.415,-1.031l0,-60.161c1.259,-0.8 2.922,-1.487 4.985,-2.062c2.062,-0.572 4.237,-0.859 6.531,-0.859c3.438,0 6.331,0.945 8.681,2.836c2.347,1.89 3.523,5.186 3.523,9.884l0,38.158c0,2.866 0.371,5.186 1.117,6.962c0.744,1.777 1.805,3.179 3.18,4.211c1.375,1.031 3.065,1.719 5.071,2.062c2.004,0.344 4.267,0.516 6.789,0.516c2.635,0 5.184,-0.172 7.65,-0.516c2.462,-0.343 4.267,-0.687 5.414,-1.031l0,-52.081c0,-11.23 -3.18,-19.682 -9.54,-25.353c-6.36,-5.673 -15.212,-8.51 -26.557,-8.51c-3.668,0 -7.02,0.374 -10.055,1.118c-3.038,0.747 -5.301,1.405 -6.789,1.976l0,-16.844c0,-2.863 -0.373,-5.184 -1.118,-6.961c-0.746,-1.776 -1.805,-3.181 -3.179,-4.212c-1.375,-1.031 -3.068,-1.719 -5.071,-2.063c-2.006,-0.343 -4.271,-0.516 -6.79,-0.516c-2.521,0 -5.014,0.202 -7.477,0.603Z" style="fill:url(#_Linear3);fill-rule:nonzero;"/><path d="M554.671,54.918c-2.75,0 -5.13,0.459 -7.134,1.375c-2.006,0.918 -3.639,2.092 -4.898,3.523c-1.262,1.435 -2.208,3.038 -2.837,4.813c-0.631,1.778 -1.003,3.583 -1.117,5.415l29.392,-4.813c-0.343,-2.291 -1.605,-4.582 -3.781,-6.875c-2.178,-2.291 -5.387,-3.438 -9.625,-3.438m4.812,67.552c-6.762,0 -13.036,-0.946 -18.821,-2.837c-5.788,-1.89 -10.829,-4.727 -15.127,-8.508c-4.297,-3.782 -7.677,-8.535 -10.14,-14.267c-2.466,-5.729 -3.695,-12.432 -3.695,-20.111c0,-7.562 1.229,-14.065 3.695,-19.509c2.463,-5.441 5.699,-9.911 9.711,-13.407c4.01,-3.494 8.594,-6.073 13.751,-7.735c5.156,-1.66 10.426,-2.493 15.814,-2.493c6.072,0 11.603,0.919 16.587,2.751c4.984,1.834 9.281,4.356 12.891,7.563c3.61,3.209 6.417,7.047 8.422,11.517c2.004,4.468 3.008,9.341 3.008,14.61c0,3.897 -1.09,6.876 -3.265,8.938c-2.178,2.062 -5.216,3.381 -9.11,3.954l-42.456,6.359c1.26,3.781 3.838,6.617 7.735,8.508c3.894,1.892 8.364,2.836 13.407,2.836c4.697,0 9.137,-0.601 13.321,-1.804c4.182,-1.204 7.59,-2.605 10.227,-4.212c1.832,1.147 3.379,2.751 4.641,4.813c1.26,2.063 1.891,4.241 1.891,6.532c0,5.157 -2.407,8.997 -7.219,11.516c-3.669,1.951 -7.794,3.267 -12.377,3.954c-4.583,0.687 -8.88,1.032 -12.891,1.032" style="fill:#fff;fill-rule:nonzero;"/><g><path d="M121.964,44.875c-10.03,5.586 -20.364,14.796 -23.656,25.795c-0.056,0.189 -0.113,0.372 -0.169,0.548c-4.482,14.016 0.105,28.904 10.574,38.496c-2.928,-4.516 -4.629,-9.9 -4.629,-15.683c0,-25.632 32.377,-43.439 32.377,-43.439c0,0 -3.91,9.979 17.268,29.679c20.899,19.441 0.322,38.527 -15.639,42.11c1.04,0 28.055,-3.806 38.232,-16.126c0,0 16.646,-15.554 3.309,-36.427c0,0 -0.223,4.396 -7.075,5.721c-10.022,1.938 -18.43,-4.646 -19.381,-14.809c-0.342,-3.648 -0.521,-7.53 -0.521,-13.264c0.64,-0.422 5.756,-17.975 -27.525,-35.737l0.104,-0.115c-0.196,-0.028 -0.408,-0.04 -0.408,-0.04c11.498,18.393 5.912,28.404 -2.861,33.291Z" style="fill:url(#_Linear4);fill-rule:nonzero;"/><path d="M128.177,13.73c0.266,0.179 1.086,0.741 1.233,0.843c0.272,0.189 2.679,1.917 3.391,2.456l2.445,1.918l0.962,0.794l2.078,1.807l1.694,1.579l0.77,0.754l1.648,1.71l1.928,2.197l1.793,2.308l1.351,1.978l1.237,2.092l1.228,2.516l0.632,1.605l0.641,2.109l0.429,2.226l0.141,2.062l0,0.017l-0.028,0.822c-0.136,4.293 0.357,14.979 0.382,15.249c0.447,4.764 2.757,8.912 6.118,11.776c0.448,0.382 1.887,1.404 2.137,1.558c0.499,0.31 2.617,1.341 3.173,1.543c2.776,1.013 5.851,1.315 8.982,0.709c2.998,-0.579 4.73,-1.762 5.729,-2.909c0.072,-0.082 0.139,-0.164 0.203,-0.245c0.449,-0.57 0.77,-1.104 0.893,-1.568c0.206,-0.78 0.259,-1.009 0.268,-1.069c9.169,17.226 1.61,28.35 -4.093,34.908c-10.403,11.964 -37.452,16.906 -37.452,16.906c9.883,0.52 18.726,-1.301 26.074,-3.809c18.708,-6.386 29.262,-25.058 23.73,-44.035c-3.269,-11.215 -17.977,-23.945 -17.977,-23.945c11.602,21.824 -3.478,20.552 -7.119,18.211c-0.11,-0.068 -0.679,-0.445 -0.78,-0.521c-3.156,-2.329 -2.805,-7.239 -3.121,-10.403c-0.261,-2.601 -0.211,-6.421 -0.261,-7.542c-1.56,-35.112 -29.783,-38.201 -33.403,-38.713c-0.135,-0.021 -0.271,-0.034 -0.408,-0.04c0.446,0.281 3.199,2.043 3.352,2.146Z" style="fill:url(#_Linear5);fill-rule:nonzero;"/><path d="M139.91,117.439c26.789,-10.404 14.929,-29.424 14.929,-29.424c3.121,19.506 -14.929,29.424 -14.929,29.424Z" style="fill:url(#_Linear6);fill-rule:nonzero;"/></g></g></g></g><defs><linearGradient id="_Linear2" x1="0" y1="0" x2="1" y2="0" gradientUnits="userSpaceOnUse" gradientTransform="matrix(0,-104.507,104.507,-0,228.436,122.297)"><stop offset="0" style="stop-color:#ff2651;stop-opacity:1"/><stop offset="0.01" style="stop-color:#ff2651;stop-opacity:1"/><stop offset="1" style="stop-color:#ff7b2c;stop-opacity:1"/></linearGradient><linearGradient id="_Linear3" x1="0" y1="0" x2="1" y2="0" gradientUnits="userSpaceOnUse" gradientTransform="matrix(0,-114.993,114.993,-0,41.0808,121.094)"><stop offset="0" style="stop-color:#ff2651;stop-opacity:1"/><stop offset="0.01" style="stop-color:#ff2651;stop-opacity:1"/><stop offset="1" style="stop-color:#ff7b2c;stop-opacity:1"/></linearGradient><linearGradient id="_Linear4" x1="0" y1="0" x2="1" y2="0" gradientUnits="userSpaceOnUse" gradientTransform="matrix(35.5102,-106.935,106.935,35.5102,129.418,117.301)"><stop offset="0" style="stop-color:#ff2651;stop-opacity:1"/><stop offset="0.01" style="stop-color:#ff2651;stop-opacity:1"/><stop offset="1" style="stop-color:#ff7b2c;stop-opacity:1"/></linearGradient><linearGradient id="_Linear5" x1="0" y1="0" x2="1" y2="0" gradientUnits="userSpaceOnUse" gradientTransform="matrix(0,-137.082,137.082,-0,157.094,125.089)"><stop offset="0" style="stop-color:#ff7b2c;stop-opacity:1"/><stop offset="0.99" style="stop-color:#ff2651;stop-opacity:1"/><stop offset="1" style="stop-color:#ff2651;stop-opacity:1"/></linearGradient><linearGradient id="_Linear6" x1="0" y1="0" x2="1" y2="0" gradientUnits="userSpaceOnUse" gradientTransform="matrix(17.9208,0,0,17.9208,139.91,102.614)"><stop offset="0" style="stop-color:#ff2651;stop-opacity:1"/><stop offset="0.01" style="stop-color:#ff2651;stop-opacity:1"/><stop offset="1" style="stop-color:#ff7b2c;stop-opacity:1"/></linearGradient></defs></svg>